# xmcd
#
# Track frame offsets:
#	150
#	17545
#	32502
#	49051
#	69899
#	83153
#	99057
#	120222
#	134054
#	150424
#	170976
#	187786
#	200701
#	214251
#	237609
#	256434
#	276357
#
# Disc length: 3913 seconds
#
# Revision: 0
# Processed by: cddbd v1.4PL0 Copyright (c) Steve Scherf et al.
# Submitted via: dBpowerAMP V4.0
#
DISCID=e70f4711
DTITLE=Various Artist - Blues Guitar
DYEAR=1900
DGENRE=Blues
TTITLE0=Bags Groove
TTITLE1=Green onions
TTITLE2=Georgia on my mind
TTITLE3=They'll get you in the end
TTITLE4=What'd i say
TTITLE5=Moanin'
TTITLE6=The day i'll cry for you
TTITLE7=boom boom
TTITLE8=Dark Blues
TTITLE9=Mr Lucky
TTITLE10=Don't start till you get the blues
TTITLE11=Too many cooks
TTITLE12=Jump up blues
TTITLE13=Baloney Again
TTITLE14=Mean city blues
TTITLE15=Every day I have The blues
TTITLE16=House of the rising sun
EXTD=Instramental collection by Signature
EXTT0=
EXTT1=
EXTT2=
EXTT3=
EXTT4=
EXTT5=
EXTT6=
EXTT7=
EXTT8=
EXTT9=
EXTT10=
EXTT11=
EXTT12=
EXTT13=
EXTT14=
EXTT15=
EXTT16=
PLAYORDER=
